<svg xmlns="http://www.w3.org/2000/svg" xmlns:xlink="http://www.w3.org/1999/xlink" width="300" zoomAndPan="magnify" viewBox="0 0 224.87999 52.499999" height="70" preserveAspectRatio="xMidYMid meet" version="1.0"><defs><g/><clipPath id="0dfc8c3705"><path d="M 24.277344 8.367188 L 76.285156 8.367188 L 76.285156 43.28125 L 24.277344 43.28125 Z M 24.277344 8.367188 " clip-rule="nonzero"/></clipPath><clipPath id="9417f9e06b"><path d="M 39.761719 20.339844 L 61.304688 20.339844 L 61.304688 41.882812 L 39.761719 41.882812 Z M 39.761719 20.339844 " clip-rule="nonzero"/></clipPath></defs><g clip-path="url(#0dfc8c3705)"><path fill="#b0c93e" d="M 76.277344 30.878906 L 76.277344 37.519531 C 76.277344 38.277344 75.664062 38.890625 74.90625 38.894531 C 74.902344 38.894531 74.898438 38.894531 74.894531 38.894531 L 70.402344 39.207031 C 70.304688 39.214844 70.222656 39.285156 70.199219 39.378906 C 69.824219 40.808594 69.296875 42.179688 68.640625 43.46875 C 68.640625 43.46875 68.636719 43.46875 68.636719 43.46875 C 68.574219 43.59375 68.414062 43.628906 68.304688 43.546875 L 64.175781 40.402344 C 64.09375 40.339844 64.0625 40.226562 64.105469 40.132812 C 64.339844 39.597656 64.539062 39.042969 64.710938 38.476562 C 64.929688 37.75 65.089844 37 65.195312 36.230469 C 65.257812 35.773438 65.300781 35.304688 65.320312 34.832031 C 65.328125 34.621094 65.335938 34.410156 65.335938 34.199219 C 65.335938 33.789062 65.316406 33.386719 65.285156 32.984375 C 64.933594 28.625 62.703125 24.796875 59.40625 22.304688 C 56.914062 20.421875 53.808594 19.308594 50.445312 19.308594 C 42.21875 19.308594 35.554688 25.972656 35.554688 34.199219 C 35.554688 36.308594 35.992188 38.316406 36.785156 40.132812 C 36.824219 40.226562 36.796875 40.339844 36.714844 40.402344 L 36.324219 40.695312 L 32.585938 43.542969 C 32.476562 43.628906 32.3125 43.59375 32.25 43.46875 C 32.242188 43.453125 32.234375 43.4375 32.226562 43.421875 C 32.214844 43.402344 32.207031 43.382812 32.195312 43.363281 C 31.871094 42.714844 31.578125 42.046875 31.320312 41.363281 C 31.078125 40.714844 30.867188 40.054688 30.691406 39.378906 C 30.667969 39.285156 30.585938 39.214844 30.488281 39.207031 L 25.996094 38.894531 C 25.992188 38.894531 25.988281 38.894531 25.984375 38.894531 C 25.226562 38.890625 24.613281 38.277344 24.613281 37.519531 L 24.613281 30.878906 C 24.613281 30.121094 25.226562 29.503906 25.984375 29.503906 C 25.988281 29.503906 25.992188 29.5 25.996094 29.5 L 30.488281 29.1875 C 30.585938 29.179688 30.667969 29.113281 30.691406 29.019531 C 31.167969 27.199219 31.886719 25.476562 32.816406 23.894531 C 32.863281 23.808594 32.855469 23.703125 32.792969 23.632812 L 29.835938 20.230469 C 29.832031 20.226562 29.832031 20.226562 29.828125 20.222656 C 29.292969 19.683594 29.296875 18.816406 29.832031 18.28125 L 32.691406 15.417969 L 34.527344 13.585938 C 35.0625 13.050781 35.929688 13.046875 36.46875 13.582031 C 36.472656 13.582031 36.472656 13.585938 36.476562 13.589844 L 39.878906 16.542969 C 39.949219 16.609375 40.054688 16.617188 40.140625 16.570312 C 41.726562 15.640625 43.445312 14.921875 45.265625 14.445312 C 45.359375 14.421875 45.425781 14.339844 45.433594 14.242188 L 45.746094 9.75 C 45.746094 9.746094 45.746094 9.742188 45.746094 9.738281 C 45.75 8.980469 46.367188 8.367188 47.125 8.367188 L 53.765625 8.367188 C 54.523438 8.367188 55.136719 8.980469 55.140625 9.738281 C 55.140625 9.742188 55.140625 9.746094 55.140625 9.75 L 55.453125 14.242188 C 55.460938 14.339844 55.53125 14.421875 55.625 14.445312 C 57.445312 14.921875 59.164062 15.640625 60.75 16.570312 C 60.832031 16.617188 60.9375 16.609375 61.011719 16.542969 L 61.585938 16.046875 L 64.410156 13.589844 C 64.414062 13.585938 64.417969 13.582031 64.417969 13.582031 C 64.957031 13.046875 65.828125 13.050781 66.363281 13.585938 L 71.058594 18.28125 C 71.59375 18.816406 71.59375 19.683594 71.0625 20.222656 C 71.058594 20.226562 71.054688 20.226562 71.054688 20.230469 L 68.097656 23.632812 C 68.035156 23.703125 68.023438 23.808594 68.074219 23.894531 C 68.875 25.261719 69.523438 26.734375 69.988281 28.28125 C 70.0625 28.523438 70.132812 28.769531 70.199219 29.019531 C 70.222656 29.113281 70.304688 29.179688 70.402344 29.1875 L 71.066406 29.234375 L 73.285156 29.390625 L 74.894531 29.5 C 74.898438 29.5 74.902344 29.503906 74.90625 29.503906 C 75.664062 29.503906 76.277344 30.121094 76.277344 30.878906 " fill-opacity="1" fill-rule="nonzero"/></g><g clip-path="url(#9417f9e06b)"><path fill="#000000" d="M 58.597656 25.324219 C 58.59375 25.324219 58.59375 25.328125 58.589844 25.332031 L 57.816406 26.238281 C 57.730469 26.203125 57.636719 26.1875 57.546875 26.191406 L 56.730469 22.992188 L 58.59375 24.824219 C 58.730469 24.960938 58.734375 25.183594 58.597656 25.324219 Z M 58 28.367188 L 55.945312 26.347656 C 55.980469 26.148438 55.921875 25.933594 55.765625 25.78125 C 55.609375 25.628906 55.394531 25.570312 55.195312 25.613281 L 53.144531 23.601562 C 53.609375 23.765625 54.058594 23.972656 54.488281 24.222656 L 56.964844 26.652344 C 56.90625 26.867188 56.960938 27.109375 57.128906 27.273438 C 57.257812 27.398438 57.425781 27.460938 57.589844 27.457031 C 57.746094 27.75 57.882812 28.054688 58 28.367188 Z M 60.335938 29.417969 C 60.53125 29.414062 60.691406 29.570312 60.691406 29.765625 L 60.699219 30.558594 L 59.007812 29.335938 L 60.324219 29.414062 C 60.328125 29.417969 60.332031 29.417969 60.335938 29.417969 Z M 56.136719 30.933594 L 56.609375 30.59375 C 56.847656 30.710938 57.144531 30.671875 57.339844 30.46875 C 57.484375 30.324219 57.542969 30.125 57.515625 29.9375 L 58.0625 29.539062 C 58.242188 29.664062 58.472656 29.683594 58.667969 29.601562 L 60.464844 30.898438 Z M 55.257812 29.117188 C 55.226562 29.050781 55.195312 28.980469 55.164062 28.914062 L 56.28125 29.867188 C 56.242188 30.007812 56.253906 30.160156 56.316406 30.296875 L 55.667969 30.765625 C 55.621094 30.195312 55.484375 29.644531 55.257812 29.117188 Z M 50.488281 36.019531 C 47.828125 36.042969 45.644531 33.898438 45.617188 31.234375 C 45.601562 29.421875 46.617188 27.738281 48.222656 26.90625 C 48.257812 26.898438 48.292969 26.882812 48.320312 26.855469 C 48.324219 26.855469 48.324219 26.855469 48.328125 26.851562 C 48.347656 26.847656 48.363281 26.84375 48.382812 26.835938 C 49.015625 26.535156 49.695312 26.378906 50.402344 26.375 C 51.410156 26.363281 52.34375 26.664062 53.125 27.183594 L 53.675781 27.613281 C 54.644531 28.488281 55.261719 29.75 55.273438 31.152344 C 55.296875 33.8125 53.152344 35.996094 50.488281 36.019531 Z M 48.527344 23.609375 L 49.566406 24.417969 L 48.417969 26.019531 Z M 47.1875 23.824219 C 47.492188 23.6875 47.804688 23.574219 48.121094 23.476562 L 48.027344 25.59375 Z M 50.261719 24.957031 C 50.214844 25.164062 50.269531 25.390625 50.433594 25.550781 C 50.632812 25.75 50.929688 25.785156 51.167969 25.664062 L 51.765625 26.128906 C 51.320312 26.011719 50.867188 25.957031 50.398438 25.960938 C 49.839844 25.964844 49.292969 26.058594 48.773438 26.234375 L 49.894531 24.671875 Z M 48.660156 21.363281 L 49.164062 22.347656 C 48.933594 22.597656 48.941406 22.984375 49.183594 23.226562 C 49.328125 23.367188 49.519531 23.425781 49.703125 23.402344 L 50.214844 24.398438 L 48.554688 23.105469 Z M 48.917969 20.96875 C 48.949219 20.960938 48.980469 20.957031 49.011719 20.957031 L 51.644531 20.933594 L 50.007812 22.269531 C 49.867188 22.164062 49.691406 22.125 49.527344 22.152344 Z M 52.054688 21.28125 C 52.054688 21.285156 52.054688 21.289062 52.054688 21.292969 L 52.15625 22.582031 C 52.097656 22.609375 52.039062 22.652344 51.992188 22.703125 C 51.785156 22.910156 51.753906 23.226562 51.898438 23.46875 L 51.070312 24.5 C 50.957031 24.464844 50.839844 24.460938 50.722656 24.488281 L 50.074219 23.222656 L 50.078125 23.21875 C 50.238281 23.054688 50.292969 22.820312 50.238281 22.613281 L 52.027344 21.152344 C 52.042969 21.191406 52.054688 21.234375 52.054688 21.28125 Z M 54.699219 26.324219 C 54.714844 26.445312 54.769531 26.566406 54.863281 26.664062 L 54.097656 27.441406 C 53.863281 27.214844 53.609375 27.007812 53.335938 26.828125 L 51.722656 25.574219 Z M 55.246094 26.859375 C 55.320312 26.867188 55.398438 26.863281 55.472656 26.847656 L 56.4375 29.457031 L 54.402344 27.722656 Z M 52.214844 23.734375 C 52.367188 23.792969 52.535156 23.789062 52.6875 23.726562 L 54.832031 25.835938 C 54.808594 25.859375 54.792969 25.890625 54.773438 25.917969 L 51.507812 25.09375 C 51.507812 24.972656 51.472656 24.851562 51.402344 24.746094 Z M 57.820312 29.207031 L 57.324219 29.566406 C 57.191406 29.441406 57.019531 29.386719 56.851562 29.394531 L 55.941406 26.921875 L 57.835938 28.785156 C 57.78125 28.917969 57.777344 29.070312 57.820312 29.207031 Z M 54.914062 24.0625 L 56.167969 22.957031 C 56.171875 22.953125 56.175781 22.949219 56.179688 22.945312 C 56.207031 22.917969 56.238281 22.894531 56.273438 22.875 L 57.132812 26.242188 Z M 56.4375 22.429688 C 56.429688 22.429688 56.417969 22.429688 56.40625 22.429688 C 56.21875 22.433594 56.03125 22.507812 55.890625 22.652344 L 54.585938 23.804688 C 54.105469 23.53125 53.597656 23.3125 53.074219 23.140625 C 53.074219 22.976562 53.011719 22.816406 52.886719 22.695312 C 52.792969 22.605469 52.683594 22.546875 52.566406 22.523438 L 52.464844 21.269531 C 52.460938 21.046875 52.359375 20.84375 52.203125 20.707031 C 52.199219 20.703125 52.191406 20.695312 52.183594 20.691406 C 52.050781 20.582031 51.878906 20.519531 51.695312 20.519531 L 49.007812 20.542969 C 48.820312 20.546875 48.652344 20.613281 48.519531 20.722656 C 48.511719 20.730469 48.507812 20.734375 48.5 20.742188 C 48.347656 20.882812 48.25 21.082031 48.25 21.308594 L 48.144531 23.042969 C 47.710938 23.164062 47.285156 23.320312 46.875 23.511719 C 46.855469 23.515625 46.839844 23.519531 46.820312 23.527344 C 46.601562 23.632812 46.382812 23.746094 46.171875 23.871094 L 44.851562 22.742188 C 44.550781 22.453125 44.070312 22.457031 43.777344 22.757812 L 41.890625 24.675781 C 41.597656 24.972656 41.601562 25.453125 41.894531 25.75 L 43.050781 27.050781 C 42.699219 27.679688 42.429688 28.34375 42.246094 29.035156 L 40.515625 29.171875 C 40.097656 29.179688 39.761719 29.527344 39.765625 29.945312 L 39.789062 32.632812 C 39.792969 33.050781 40.132812 33.390625 40.550781 33.390625 L 42.285156 33.496094 C 42.480469 34.183594 42.761719 34.847656 43.125 35.464844 L 41.996094 36.789062 C 41.707031 37.089844 41.710938 37.570312 42.011719 37.863281 L 43.929688 39.746094 C 44.226562 40.039062 44.707031 40.039062 45.003906 39.742188 L 46.304688 38.589844 C 46.933594 38.941406 47.597656 39.210938 48.289062 39.394531 L 48.425781 41.125 C 48.433594 41.542969 48.78125 41.878906 49.199219 41.875 L 51.886719 41.851562 C 52.304688 41.847656 52.644531 41.503906 52.644531 41.085938 L 52.75 39.351562 C 53.4375 39.160156 54.101562 38.878906 54.71875 38.515625 L 56.042969 39.644531 C 56.34375 39.933594 56.824219 39.925781 57.117188 39.628906 L 59 37.710938 C 59.292969 37.410156 59.292969 36.929688 58.996094 36.636719 L 57.84375 35.332031 C 58.195312 34.707031 58.464844 34.042969 58.648438 33.347656 L 60.378906 33.210938 C 60.796875 33.203125 61.132812 32.859375 61.128906 32.441406 L 61.117188 31.105469 L 61.117188 31.097656 L 61.113281 30.960938 L 61.105469 29.761719 C 61.101562 29.34375 60.757812 29.003906 60.339844 29.003906 L 59.046875 28.925781 C 59.027344 28.792969 58.96875 28.667969 58.867188 28.566406 C 58.75 28.453125 58.597656 28.390625 58.445312 28.386719 C 58.316406 28.015625 58.160156 27.65625 57.980469 27.308594 C 57.996094 27.296875 58.007812 27.28125 58.023438 27.265625 C 58.226562 27.0625 58.257812 26.753906 58.125 26.511719 L 58.898438 25.605469 C 59.1875 25.304688 59.179688 24.824219 58.882812 24.53125 L 56.964844 22.648438 C 56.816406 22.503906 56.628906 22.429688 56.4375 22.429688 " fill-opacity="1" fill-rule="nonzero"/></g><g fill="#000000" fill-opacity="1"><g transform="translate(82.970426, 36.100868)"><g><path d="M 13.234375 -3.65625 L 5.328125 -3.65625 L 3.8125 0 L -0.21875 0 L 7.375 -17.03125 L 11.265625 -17.03125 L 18.875 0 L 14.75 0 Z M 12 -6.640625 L 9.296875 -13.15625 L 6.59375 -6.640625 Z M 12 -6.640625 "/></g></g></g><g fill="#000000" fill-opacity="1"><g transform="translate(100.390931, 36.100868)"><g><path d="M 5.375 -11.359375 C 5.832031 -11.992188 6.445312 -12.472656 7.21875 -12.796875 C 7.988281 -13.117188 8.875 -13.28125 9.875 -13.28125 L 9.875 -9.78125 C 9.457031 -9.8125 9.175781 -9.828125 9.03125 -9.828125 C 7.9375 -9.828125 7.082031 -9.519531 6.46875 -8.90625 C 5.851562 -8.300781 5.546875 -7.390625 5.546875 -6.171875 L 5.546875 0 L 1.75 0 L 1.75 -13.09375 L 5.375 -13.09375 Z M 5.375 -11.359375 "/></g></g></g><g fill="#000000" fill-opacity="1"><g transform="translate(109.660659, 36.100868)"><g><path d="M 14.578125 -6.5 C 14.578125 -6.445312 14.550781 -6.101562 14.5 -5.46875 L 4.59375 -5.46875 C 4.769531 -4.65625 5.191406 -4.015625 5.859375 -3.546875 C 6.523438 -3.078125 7.351562 -2.84375 8.34375 -2.84375 C 9.019531 -2.84375 9.625 -2.941406 10.15625 -3.140625 C 10.6875 -3.347656 11.175781 -3.671875 11.625 -4.109375 L 13.640625 -1.921875 C 12.410156 -0.515625 10.613281 0.1875 8.25 0.1875 C 6.769531 0.1875 5.460938 -0.0976562 4.328125 -0.671875 C 3.191406 -1.242188 2.316406 -2.039062 1.703125 -3.0625 C 1.085938 -4.082031 0.78125 -5.242188 0.78125 -6.546875 C 0.78125 -7.828125 1.082031 -8.984375 1.6875 -10.015625 C 2.300781 -11.046875 3.140625 -11.847656 4.203125 -12.421875 C 5.265625 -12.992188 6.453125 -13.28125 7.765625 -13.28125 C 9.046875 -13.28125 10.203125 -13.003906 11.234375 -12.453125 C 12.273438 -11.898438 13.09375 -11.109375 13.6875 -10.078125 C 14.28125 -9.054688 14.578125 -7.863281 14.578125 -6.5 Z M 7.78125 -10.40625 C 6.925781 -10.40625 6.207031 -10.160156 5.625 -9.671875 C 5.039062 -9.191406 4.679688 -8.53125 4.546875 -7.6875 L 11 -7.6875 C 10.863281 -8.507812 10.503906 -9.164062 9.921875 -9.65625 C 9.335938 -10.15625 8.625 -10.40625 7.78125 -10.40625 Z M 7.78125 -10.40625 "/></g></g></g><g fill="#000000" fill-opacity="1"><g transform="translate(123.796521, 36.100868)"><g><path d="M 7.03125 -13.28125 C 9.0625 -13.28125 10.617188 -12.796875 11.703125 -11.828125 C 12.785156 -10.867188 13.328125 -9.414062 13.328125 -7.46875 L 13.328125 0 L 9.78125 0 L 9.78125 -1.625 C 9.0625 -0.414062 7.734375 0.1875 5.796875 0.1875 C 4.785156 0.1875 3.910156 0.0195312 3.171875 -0.3125 C 2.429688 -0.65625 1.867188 -1.125 1.484375 -1.71875 C 1.097656 -2.320312 0.90625 -3.003906 0.90625 -3.765625 C 0.90625 -4.984375 1.363281 -5.941406 2.28125 -6.640625 C 3.195312 -7.335938 4.609375 -7.6875 6.515625 -7.6875 L 9.53125 -7.6875 C 9.53125 -8.507812 9.28125 -9.144531 8.78125 -9.59375 C 8.28125 -10.039062 7.523438 -10.265625 6.515625 -10.265625 C 5.816406 -10.265625 5.128906 -10.15625 4.453125 -9.9375 C 3.785156 -9.71875 3.21875 -9.421875 2.75 -9.046875 L 1.390625 -11.703125 C 2.097656 -12.203125 2.953125 -12.585938 3.953125 -12.859375 C 4.953125 -13.140625 5.976562 -13.28125 7.03125 -13.28125 Z M 6.734375 -2.359375 C 7.390625 -2.359375 7.96875 -2.507812 8.46875 -2.8125 C 8.96875 -3.113281 9.320312 -3.554688 9.53125 -4.140625 L 9.53125 -5.46875 L 6.9375 -5.46875 C 5.375 -5.46875 4.59375 -4.957031 4.59375 -3.9375 C 4.59375 -3.457031 4.78125 -3.070312 5.15625 -2.78125 C 5.539062 -2.5 6.066406 -2.359375 6.734375 -2.359375 Z M 6.734375 -2.359375 "/></g></g></g><g fill="#000000" fill-opacity="1"><g transform="translate(137.591756, 36.100868)"><g><path d="M 27.765625 -17.03125 L 22.1875 0 L 17.953125 0 L 14.203125 -11.53125 L 10.34375 0 L 6.125 0 L 0.53125 -17.03125 L 4.625 -17.03125 L 8.46875 -5.0625 L 12.484375 -17.03125 L 16.125 -17.03125 L 20.015625 -4.96875 L 23.984375 -17.03125 Z M 27.765625 -17.03125 "/></g></g></g><g fill="#000000" fill-opacity="1"><g transform="translate(164.671549, 36.100868)"><g><path d="M 9.390625 -17.03125 C 10.898438 -17.03125 12.207031 -16.773438 13.3125 -16.265625 C 14.425781 -15.765625 15.28125 -15.050781 15.875 -14.125 C 16.476562 -13.207031 16.78125 -12.113281 16.78125 -10.84375 C 16.78125 -9.601562 16.476562 -8.515625 15.875 -7.578125 C 15.28125 -6.640625 14.425781 -5.925781 13.3125 -5.4375 C 12.207031 -4.945312 10.898438 -4.703125 9.390625 -4.703125 L 5.953125 -4.703125 L 5.953125 0 L 2.015625 0 L 2.015625 -17.03125 Z M 9.171875 -7.90625 C 10.359375 -7.90625 11.257812 -8.160156 11.875 -8.671875 C 12.488281 -9.179688 12.796875 -9.90625 12.796875 -10.84375 C 12.796875 -11.800781 12.488281 -12.535156 11.875 -13.046875 C 11.257812 -13.554688 10.359375 -13.8125 9.171875 -13.8125 L 5.953125 -13.8125 L 5.953125 -7.90625 Z M 9.171875 -7.90625 "/></g></g></g></svg>